<svg xmlns="http://www.w3.org/2000/svg" viewBox="0 0 512 512">
  <defs>
    <linearGradient id="grad1" x1="0%" y1="0%" x2="100%" y2="100%">
      <stop offset="0%" style="stop-color:#667eea;stop-opacity:1" />
      <stop offset="100%" style="stop-color:#764ba2;stop-opacity:1" />
    </linearGradient>
  </defs>
  <rect width="512" height="512" rx="80" fill="url(#grad1)"/>
  <g fill="white">
    <!-- Document icon -->
    <path d="M160 80h128l64 64v288a16 16 0 01-16 16H160a16 16 0 01-16-16V96a16 16 0 0116-16z" opacity="0.9"/>
    <path d="M288 80v48a16 16 0 0016 16h48" fill="none" stroke="white" stroke-width="16"/>
    <!-- Analysis bars -->
    <rect x="192" y="200" width="128" height="16" rx="4" opacity="0.6"/>
    <rect x="192" y="240" width="96" height="16" rx="4" opacity="0.6"/>
    <rect x="192" y="280" width="112" height="16" rx="4" opacity="0.6"/>
    <rect x="192" y="320" width="80" height="16" rx="4" opacity="0.6"/>
    <!-- Magnifying glass -->
    <circle cx="380" cy="360" r="60" fill="none" stroke="white" stroke-width="20"/>
    <line x1="420" y1="400" x2="460" y2="440" stroke="white" stroke-width="20" stroke-linecap="round"/>
    <path d="M360 340l40 40" stroke="white" stroke-width="8" stroke-linecap="round"/>
  </g>
</svg>
